HIERARCHY
ROOT Hips
{
    OFFSET 0.000000 0.000000 0.000000
    CHANNELS 6 Xposition Yposition Zposition Zrotation Xrotation Yrotation
    JOINT Spine
    {
        OFFSET -0.000000 14.517291 0.000000
        CHANNELS 3 Zrotation Xrotation Yrotation
        JOINT Spine1
        {
            OFFSET -0.000000 37.558300 0.000000
            CHANNELS 3 Zrotation Xrotation Yrotation
            JOINT Neck
            {
                OFFSET -0.000000 37.404057 3.400369
                CHANNELS 3 Zrotation Xrotation Yrotation
                JOINT Head
                {
                    OFFSET -0.000000 24.785618 -3.540803
                    CHANNELS 3 Zrotation Xrotation Yrotation
                    End Site
                    {
                        OFFSET -0.000000 35.408028 0.000000
                    }
                }
            }
            JOINT LeftShoulder
            {
                OFFSET 6.992933 33.973492 -0.192664
                CHANNELS 3 Zrotation Xrotation Yrotation
                JOINT LeftArm
                {
                    OFFSET 21.527611 0.000000 0.000000
                    CHANNELS 3 Zrotation Xrotation Yrotation
                    JOINT LeftForeArm
                    {
                        OFFSET 56.353916 0.000000 0.000000
                        CHANNELS 3 Zrotation Xrotation Yrotation
                        JOINT LeftHand
                        {
                            OFFSET 47.774071 0.000000 0.000000
                            CHANNELS 3 Zrotation Xrotation Yrotation
                            End Site
                            {
                                OFFSET 26.556021 0.000000 0.000000
                            }
                        }
                    }
                }
            }
            JOINT RightShoulder
            {
                OFFSET -7.065357 33.973492 -0.192664
                CHANNELS 3 Zrotation Xrotation Yrotation
                JOINT RightArm
                {
                    OFFSET -21.527611 0.000000 0.000000
                    CHANNELS 3 Zrotation Xrotation Yrotation
                    JOINT RightForeArm
                    {
                        OFFSET -56.353916 0.000000 0.000000
                        CHANNELS 3 Zrotation Xrotation Yrotation
                        JOINT RightHand
                        {
                            OFFSET -47.774071 0.000000 0.000000
                            CHANNELS 3 Zrotation Xrotation Yrotation
                            End Site
                            {
                                OFFSET -26.556021 0.000000 0.000000
                            }
                        }
                    }
                }
            }
        }
    }
    JOINT LeftUpLeg
    {
        OFFSET 17.704014 0.000000 0.000000
        CHANNELS 3 Zrotation Xrotation Yrotation
        JOINT LeftLeg
        {
            OFFSET -0.000000 -81.181816 0.000000
            CHANNELS 3 Zrotation Xrotation Yrotation
            JOINT LeftFoot
            {
                OFFSET -0.000000 -62.821102 0.000000
                CHANNELS 3 Zrotation Xrotation Yrotation
                JOINT LeftToeBase
                {
                    OFFSET -0.000000 -11.507608 26.556021
                    CHANNELS 3 Zrotation Xrotation Yrotation
                    End Site
                    {
                        OFFSET -0.000000 0.000000 7.081605
                    }
                }
            }
        }
    }
    JOINT RightUpLeg
    {
        OFFSET -17.704014 0.000000 0.000000
        CHANNELS 3 Zrotation Xrotation Yrotation
        JOINT RightLeg
        {
            OFFSET -0.000000 -81.181816 0.000000
            CHANNELS 3 Zrotation Xrotation Yrotation
            JOINT RightFoot
            {
                OFFSET -0.000000 -62.821102 0.000000
                CHANNELS 3 Zrotation Xrotation Yrotation
                JOINT RightToeBase
                {
                    OFFSET -0.000000 -11.507608 26.556021
                    CHANNELS 3 Zrotation Xrotation Yrotation
                    End Site
                    {
                        OFFSET -0.000000 0.000000 7.081605
                    }
                }
            }
        }
    }
}
MOTION
Frames:    9
Frame Time:    0.008333
21.401211    154.309265    -40.481396    0.296602    1.008341    -65.222183    2.991556    0.913886    2.732269    0.166934    2.818273    0.913485    16.196932    -0.573271    15.309085    -9.976458    7.730974    12.704874    11.643471    -0.458670    -17.755733    -11.022511    -17.892263    -40.429695    7.689261    -38.496605    -27.544998    -25.097757    -27.743351    -46.478668    -8.458686    3.274145    -0.047487    35.128082    6.923872    78.458855    6.880161    -3.585249    105.963326    4.020252    -11.911462    20.955624    16.347527    -21.946302    -26.981606    -8.844926    30.793066    -25.534967    -6.496110    -17.762053    30.004526    0.000000    0.000000    0.000000    -11.338692    -15.825642    5.892138    7.529867    38.571316    -1.073463    4.596679    -22.089584    -7.330592    0.000000    0.000000    0.000000    
21.356810    154.299805    -40.450756    0.255168    0.974220    -65.182816    2.993132    0.918572    2.715605    0.157805    2.809995    0.908224    16.202383    -0.575825    15.306318    -9.976830    7.777556    12.704844    11.641405    -0.457139    -17.762094    -11.036248    -17.897095    -40.447384    7.660821    -38.471565    -27.531004    -25.101807    -27.717800    -46.490192    -8.450550    3.287488    -0.065117    35.110607    6.945737    78.443024    6.912365    -3.502373    105.966728    3.993697    -11.877831    20.959576    16.326200    -21.905602    -26.930510    -8.828356    30.818611    -25.586723    -6.519263    -17.773396    29.955153    0.000000    0.000000    0.000000    -11.363503    -15.749585    5.863871    7.532573    38.586292    -1.086052    4.585440    -22.104227    -7.331506    0.000000    0.000000    0.000000    
21.315584    154.290421    -40.424110    0.213786    0.945861    -65.141716    2.999471    0.925135    2.699895    0.147604    2.799894    0.903332    16.221996    -0.569079    15.308704    -10.006178    7.805785    12.705619    11.639273    -0.445758    -17.772446    -11.025870    -17.882172    -40.460159    7.650698    -38.482433    -27.509222    -25.120382    -27.722990    -46.503979    -8.441303    3.293297    -0.078904    35.101585    6.958030    78.418991    6.934001    -3.408573    105.968056    4.002722    -11.812831    20.961924    16.311037    -21.871161    -26.894718    -8.823102    30.846678    -25.628448    -6.523491    -17.781216    29.917116    0.000000    0.000000    0.000000    -11.387373    -15.675312    5.851111    7.556600    38.597080    -1.107053    4.545835    -22.117800    -7.317847    0.000000    0.000000    0.000000    
21.270115    154.279068    -40.398525    0.173438    0.917786    -65.098862    2.998443    0.926719    2.684542    0.151497    2.787377    0.898102    16.211008    -0.555249    15.301133    -10.011071    7.829238    12.703176    11.633522    -0.434912    -17.790300    -11.014366    -17.856884    -40.458691    7.656164    -38.462734    -27.484262    -25.111860    -27.705784    -46.498604    -8.445064    3.308971    -0.089644    35.085262    6.960826    78.399033    6.966111    -3.321763    105.971558    3.989413    -11.772349    20.972523    16.296837    -21.838606    -26.861795    -8.817284    30.875769    -25.657373    -6.520054    -17.785831    29.852844    0.000000    0.000000    0.000000    -11.412167    -15.601451    5.826945    7.579813    38.611301    -1.108873    4.518303    -22.138744    -7.333781    0.000000    0.000000    0.000000    
21.225342    154.273361    -40.374119    0.135761    0.893839    -65.057343    3.002541    0.925039    2.671674    0.153722    2.778151    0.893793    16.223408    -0.548566    15.306577    -10.049831    7.859542    12.707813    11.630014    -0.427333    -17.794676    -11.016169    -17.836437    -40.474251    7.636271    -38.462807    -27.473413    -25.118557    -27.709236    -46.494171    -8.444729    3.314226    -0.107326    35.057568    6.967641    78.386192    6.996611    -3.244279    105.967842    3.998352    -11.733541    20.987160    16.285610    -21.809639    -26.807123    -8.806775    30.905745    -25.683661    -6.535944    -17.784039    29.785627    0.000000    0.000000    0.000000    -11.429524    -15.531598    5.804064    7.596768    38.620342    -1.131671    4.484730    -22.147093    -7.332249    0.000000    0.000000    0.000000    
21.169796    154.253769    -40.350716    0.036456    0.886752    -65.006958    3.052504    0.974782    2.646311    0.153997    2.765490    0.885871    16.225515    -0.535773    15.307323    -10.086261    7.880486    12.709389    11.625122    -0.410500    -17.798199    -11.015396    -17.833590    -40.483738    7.607181    -38.449814    -27.464214    -25.100536    -27.711597    -46.481884    -8.463185    3.318960    -0.095848    35.049248    6.965939    78.358162    7.023636    -3.172440    105.977348    3.978638    -11.703199    20.994495    16.313690    -21.742863    -26.745522    -8.791838    30.957947    -25.707151    -6.548151    -17.814968    29.675940    0.000000    0.000000    0.000000    -11.403365    -15.402247    5.790610    7.614298    38.621925    -1.148029    4.466934    -22.166574    -7.328097    0.000000    0.000000    0.000000    
21.118864    154.245026    -40.326714    -0.010520    0.869414    -64.972809    3.068620    0.975777    2.638208    0.152174    2.760741    0.883290    16.216969    -0.536802    15.314177    -10.086252    7.904789    12.719927    11.627879    -0.394105    -17.802263    -11.019301    -17.813200    -40.494606    7.597480    -38.451790    -27.455450    -25.093887    -27.717720    -46.488029    -8.463861    3.319314    -0.094713    35.046593    6.946490    78.334549    7.051870    -3.068024    105.974968    3.947607    -11.643984    20.979195    16.315252    -21.704281    -26.666395    -8.762693    30.994967    -25.735363    -6.570697    -17.824078    29.574064    0.000000    0.000000    0.000000    -11.409576    -15.325524    5.786682    7.643317    38.627918    -1.176567    4.415782    -22.177040    -7.331601    0.000000    0.000000    0.000000    
21.067677    154.236145    -40.310921    -0.053102    0.860531    -64.935738    3.083260    0.965145    2.629922    0.155618    2.765373    0.880408    16.234457    -0.541291    15.324627    -10.126484    7.937188    12.727482    11.632547    -0.388038    -17.805328    -11.022408    -17.790308    -40.503174    7.593950    -38.446404    -27.441231    -25.107805    -27.709652    -46.479816    -8.470051    3.326246    -0.101774    35.012981    6.941024    78.324867    7.066046    -3.029750    105.978317    3.962324    -11.621833    21.008432    16.329395    -21.674753    -26.618473    -8.765313    31.021788    -25.728550    -6.599099    -17.833208    29.486137    0.000000    0.000000    0.000000    -11.402489    -15.256755    5.780730    7.655627    38.634781    -1.205817    4.391273    -22.183657    -7.319987    0.000000    0.000000    0.000000    
21.014582    154.227615    -40.293098    -0.100146    0.848682    -64.900253    3.101887    0.960375    2.624938    0.154378    2.765435    0.878793    16.221571    -0.542739    15.327957    -10.119419    7.958472    12.735190    11.638436    -0.381622    -17.816679    -11.019637    -17.744764    -40.503628    7.608669    -38.461189    -27.427677    -25.118549    -27.714537    -46.501617    -8.480412    3.319068    -0.095998    35.021004    6.925409    78.294724    7.088016    -2.962142    105.983688    3.974234    -11.582311    21.023430    16.336428    -21.639585    -26.559406    -8.751645    31.055927    -25.751017    -6.597782    -17.838835    29.415995    0.000000    0.000000    0.000000    -11.403135    -15.180769    5.790961    7.699612    38.635311    -1.256009    4.358891    -22.196604    -7.314760    0.000000    0.000000    0.000000    
